<svg width="86" height="86" viewBox="0 0 86 86" fill="none" xmlns="http://www.w3.org/2000/svg">
<path d="M43.0001 0.850098C34.6636 0.850098 26.5144 3.32215 19.5828 7.95365C12.6513 12.5852 7.24883 19.1681 4.05859 26.87C0.86836 34.5719 0.0336501 43.0469 1.66002 51.2232C3.28638 59.3995 7.30078 66.9099 13.1956 72.8046C19.0903 78.6994 26.6008 82.7138 34.7771 84.3402C42.9534 85.9666 51.4283 85.1319 59.1302 81.9416C66.8321 78.7514 73.4151 73.3489 78.0466 66.4174C82.6781 59.4858 85.1501 51.3366 85.1501 43.0001C85.1369 31.8253 80.6918 21.112 72.79 13.2102C64.8883 5.30837 54.1749 0.86333 43.0001 0.850098ZM61.9501 35.4601L41.2201 56.1901C40.8486 56.562 40.4075 56.857 39.9219 57.0583C39.4363 57.2596 38.9158 57.3632 38.3901 57.3632C37.8645 57.3632 37.3439 57.2596 36.8584 57.0583C36.3728 56.857 35.9316 56.562 35.5601 56.1901L24.0501 44.6901C23.6765 44.3185 23.3798 43.8769 23.1768 43.3905C22.9739 42.9042 22.8687 42.3827 22.8673 41.8557C22.8659 41.3287 22.9683 40.8066 23.1687 40.3193C23.3691 39.8319 23.6635 39.3887 24.0351 39.0151C24.4068 38.6415 24.8483 38.3447 25.3347 38.1418C25.821 37.9388 26.3425 37.8337 26.8695 37.8323C27.3965 37.8309 27.9186 37.9333 28.406 38.1337C28.8934 38.334 29.3365 38.6285 29.7101 39.0001L38.3901 47.6801L56.2901 29.7801C57.0407 29.0295 58.0587 28.6079 59.1201 28.6079C60.1816 28.6079 61.1996 29.0295 61.9501 29.7801C62.7007 30.5307 63.1223 31.5486 63.1223 32.6101C63.1223 33.6716 62.7007 34.6895 61.9501 35.4401V35.4601Z" fill="#00a186"/>
</svg>
