<svg width="260" height="260" viewBox="0 0 260 260" fill="none" xmlns="http://www.w3.org/2000/svg">
<path d="M129.8 0.100098C58.3998 0.100098 0.299805 58.2001 0.299805 129.6C0.299805 201 58.3998 259.1 129.8 259.1C201.2 259.1 259.3 201 259.3 129.6C259.3 58.2001 201.2 0.100098 129.8 0.100098ZM182.3 178C185 180.8 184.9 185.2 182.1 187.9C180.7 189.2 179 189.8 177.3 189.8C175.5 189.8 173.6 189.1 172.2 187.6L129.7 143.1L87.1998 187.6C85.7998 189 83.9998 189.8 82.0998 189.8C80.3998 189.8 78.5998 189.2 77.2998 187.9C74.4998 185.2 74.3998 180.8 77.0998 178L120 133L76.9998 88.1001C74.2998 85.3001 74.3998 80.9001 77.1998 78.2001C79.9998 75.5001 84.3998 75.6001 87.0998 78.4001L129.6 122.9L172.1 78.4001C174.8 75.6001 179.2 75.5001 182 78.2001C184.8 80.9001 184.9 85.3001 182.2 88.1001L139.3 133L182.3 178Z" fill="#dc3545"/>
</svg>
