<?xml version="1.0" encoding="UTF-8"?>
<svg width="1200pt" height="1200pt" version="1.1" viewBox="0 0 1200 1200" xmlns="http://www.w3.org/2000/svg">
 <path fill="#fff" d="m683.28 1013.8h-618.48v-617.4h105.6l-0.003906-103.56h104.52v-106.56h617.52l0.003906 333.36h-59.16v-278.16h-499.08v51.238h454.68v396.48h-59.16v-341.16h-500.16v48.359h453.72zm-559.2-562.2v507h500.04l0.003906-507zm77.883 91.801c20.762 0 34.559 14.762 34.559 35.52 0 21.719-13.801 35.52-34.559 35.52-21.719 0-35.52-13.801-35.52-35.52 0-20.758 13.797-35.52 35.52-35.52zm0 103.56c20.762 0 34.559 13.801 34.559 34.559 0 21.719-13.801 35.52-34.559 35.52-21.719 0-35.52-13.801-35.52-35.52 0-20.762 13.797-34.559 35.52-34.559zm0 104.52c20.762 0 34.559 13.801 34.559 35.52 0 20.762-13.801 35.52-34.559 35.52-21.719 0-35.52-14.762-35.52-35.52 0-21.723 13.797-35.52 35.52-35.52zm0 100.56c20.762 0 34.559 14.762 34.559 35.52 0 21.719-13.801 35.52-34.559 35.52-21.719 0-35.52-13.801-35.52-35.52 0-20.641 13.797-35.52 35.52-35.52zm57.238-146.88v-45.359h55.199v45.359zm0 104.52v-45.359h55.199v45.359zm0 101.64v-45.359h55.199v45.359zm72-356.16-18.719-75.961 174.6 116.4h-225.96v-40.441zm14.762 150v-45.359h55.199v45.359zm0 104.52v-45.359h55.199v45.359zm0 101.64v-45.359h55.199v45.359zm83.879-206.16v-45.359h55.199v45.359zm0 104.52v-45.359h55.199v45.359zm0 101.64v-45.359h55.199v45.359zm114.36-367.92c20.762 0 35.52 14.762 35.52 35.52 0 21.719-14.762 35.52-35.52 35.52-21.719 0-35.52-13.801-35.52-35.52 0-20.758 13.801-35.52 35.52-35.52zm0 103.56c20.762 0 35.52 13.801 35.52 34.559 0 21.719-14.762 35.52-35.52 35.52-21.719 0-35.52-13.801-35.52-35.52 0-20.762 13.801-34.559 35.52-34.559zm0 104.52c20.762 0 35.52 13.801 35.52 35.52 0 20.762-14.762 35.52-35.52 35.52-21.719 0-35.52-14.762-35.52-35.52 0-21.723 13.801-35.52 35.52-35.52zm0 100.56c20.762 0 35.52 14.762 35.52 35.52 0 21.719-14.762 35.52-35.52 35.52-21.719 0-35.52-13.801-35.52-35.52 0-20.641 13.801-35.52 35.52-35.52zm354.12 2.0391-110.52 153.84-67.078-46.32 110.52-153.84zm236.76-177.6c0 87.84-64.078 147-147 147-83.879 0-147.96-63.121-147.96-147 0-88.801 65.039-147 147.96-147 87.844 0 147 63.117 147 147zm-237.72 0c0 54.238 36.48 89.762 90.719 89.762 53.281 0 89.762-35.52 89.762-89.762 0-54.238-36.48-89.762-89.762-89.762-54.238 0-90.719 35.52-90.719 89.762z"/>
</svg>
